<?xml version="1.0" encoding="utf-8" ?><svg xmlns="http://www.w3.org/2000/svg" xmlns:xlink="http://www.w3.org/1999/xlink" width="1024" height="1024" viewBox="0 0 1024 1024"><path transform="scale(2 2)" d="M74.0948 78.9211L156.131 78.9211L438.238 78.9211L438.238 159.432L356.125 159.432L74.0948 159.432L74.0948 78.9211ZM174.777 110.476L174.777 128.249L335.599 128.249L335.599 110.476L174.777 110.476Z"/><path transform="scale(2 2)" d="M74.0948 423.334L74.1067 203.53C74.1074 194.76 73.7209 185.829 74.0948 177.074L110.747 177.074C110.889 182.798 110.754 188.561 110.752 194.288L110.74 227.434C110.737 239.095 106.257 255.613 121.335 255.779C144.012 256.027 166.718 255.794 189.398 255.793L207.766 255.804C221.954 255.913 223.73 257.177 223.728 240.751L223.717 177.074L247.297 177.074L247.297 344.821L247.297 423.334L74.0948 423.334ZM120.115 280.898C108.18 281.283 110.722 293.096 110.737 301.532L110.745 355.383C110.727 374.471 107.712 377.301 127.879 377.225L214.691 377.198C225.819 377.154 223.733 365.344 223.728 357.617L223.722 306.717C223.723 301.24 223.925 295.671 223.648 290.204C223.069 278.789 212.489 280.877 204.217 280.885L120.115 280.898Z"/><path transform="scale(2 2)" d="M127.69 238.606L127.69 177.074L207.25 177.074L207.25 238.606L127.69 238.606Z"/><path transform="scale(2 2)" d="M265.425 423.334L265.425 177.074L438.238 177.074L438.237 392.967C438.235 395.764 438.447 423.095 438.238 423.334L265.425 423.334ZM304.814 238.606L297.75 238.606C297.613 244.16 297.255 250.259 297.75 255.793L376.178 255.793C378.645 255.908 381.034 255.911 383.502 255.793L383.502 238.606L304.814 238.606ZM297.75 319.342L297.75 337.745L383.502 337.745L383.502 319.342L297.75 319.342Z"/><path transform="scale(2 2)" d="M127.69 359.128C127.254 339.631 127.091 317.735 127.69 298.256L207.25 298.256L207.25 359.128L127.69 359.128Z"/></svg>